<svg xmlns="http://www.w3.org/2000/svg" width="460" height="260" viewBox="0 0 460 260">
<rect width="100%" height="100%" fill="#ffffff"/>
<text x="230" y="28" text-anchor="middle" font-size="18" fill="#10263b">Baseline Robustness Summary</text>
<line x1="80" y1="50" x2="80" y2="210" stroke="#24476b"/>
<line x1="80" y1="210" x2="420" y2="210" stroke="#24476b"/>
<text x="120" y="245" text-anchor="middle" font-size="12" fill="#24476b">Clean</text>
<text x="170" y="245" text-anchor="middle" font-size="12" fill="#24476b">Paraphrased</text>
<rect x="300" y="52" width="14" height="14" fill="#4c84c3"/>
<text x="322" y="64" font-size="12" fill="#24476b">Clean</text>
<rect x="370" y="52" width="14" height="14" fill="#d98b3a"/>
<text x="392" y="64" font-size="12" fill="#24476b">Paraphrased</text>
<rect x="90" y="123.32900000000001" width="36" height="86.67099999999999" fill="#4c84c3"/>
<rect x="154" y="145.0" width="36" height="65.0" fill="#d98b3a"/>
<text x="108.0" y="115.32900000000001" text-anchor="middle" font-size="11" fill="#10263b">0.67</text>
<text x="172.0" y="137.0" text-anchor="middle" font-size="11" fill="#10263b">0.50</text>
<text x="140.0" y="228" text-anchor="middle" font-size="12" fill="#24476b">Accuracy</text>
<rect x="244" y="80.0" width="36" height="130.0" fill="#4c84c3"/>
<rect x="308" y="123.32900000000001" width="36" height="86.67099999999999" fill="#d98b3a"/>
<text x="262.0" y="72.0" text-anchor="middle" font-size="11" fill="#10263b">1.00</text>
<text x="326.0" y="115.32900000000001" text-anchor="middle" font-size="11" fill="#10263b">0.67</text>
<text x="294.0" y="228" text-anchor="middle" font-size="12" fill="#24476b">Recall</text>
<rect x="398" y="112.5" width="36" height="97.5" fill="#4c84c3"/>
<rect x="462" y="135.71800000000002" width="36" height="74.282" fill="#d98b3a"/>
<text x="416.0" y="104.5" text-anchor="middle" font-size="11" fill="#10263b">0.75</text>
<text x="480.0" y="127.71800000000002" text-anchor="middle" font-size="11" fill="#10263b">0.57</text>
<text x="448.0" y="228" text-anchor="middle" font-size="12" fill="#24476b">F1</text>
<text x="64" y="214" text-anchor="end" font-size="11" fill="#24476b">0.0</text>
<text x="64" y="149" text-anchor="end" font-size="11" fill="#24476b">0.5</text>
<text x="64" y="84" text-anchor="end" font-size="11" fill="#24476b">1.0</text>
</svg>