<svg xmlns="http://www.w3.org/2000/svg" width="800" height="270" viewBox="0 0 800 270">
<rect width="800" height="270" fill="#ffffff" />
<text x="400" y="28" text-anchor="middle" font-size="18" fill="#10263b">TF-IDF Confusion Matrices Across Splits</text>
<text x="95" y="50" text-anchor="middle" font-size="14" fill="#10263b">Clean</text><rect x="20" y="70" width="68" height="68" fill="#dce8f5" stroke="#24476b" /><text x="54" y="108" text-anchor="middle" font-size="18" fill="#10263b">5</text><rect x="90" y="70" width="68" height="68" fill="#8fb6df" stroke="#24476b" /><text x="124" y="108" text-anchor="middle" font-size="18" fill="#10263b">1</text><rect x="20" y="140" width="68" height="68" fill="#8fb6df" stroke="#24476b" /><text x="54" y="178" text-anchor="middle" font-size="18" fill="#10263b">0</text><rect x="90" y="140" width="68" height="68" fill="#4c84c3" stroke="#24476b" /><text x="124" y="178" text-anchor="middle" font-size="18" fill="#10263b">6</text><text x="54" y="64" text-anchor="middle" font-size="10" fill="#24476b">Pred H</text><text x="124" y="64" text-anchor="middle" font-size="10" fill="#24476b">Pred A</text><text x="12" y="104" text-anchor="end" font-size="10" fill="#24476b">True H</text><text x="12" y="174" text-anchor="end" font-size="10" fill="#24476b">True A</text><text x="285" y="50" text-anchor="middle" font-size="14" fill="#10263b">Light</text><rect x="210" y="70" width="68" height="68" fill="#dce8f5" stroke="#24476b" /><text x="244" y="108" text-anchor="middle" font-size="18" fill="#10263b">5</text><rect x="280" y="70" width="68" height="68" fill="#8fb6df" stroke="#24476b" /><text x="314" y="108" text-anchor="middle" font-size="18" fill="#10263b">1</text><rect x="210" y="140" width="68" height="68" fill="#8fb6df" stroke="#24476b" /><text x="244" y="178" text-anchor="middle" font-size="18" fill="#10263b">0</text><rect x="280" y="140" width="68" height="68" fill="#4c84c3" stroke="#24476b" /><text x="314" y="178" text-anchor="middle" font-size="18" fill="#10263b">6</text><text x="244" y="64" text-anchor="middle" font-size="10" fill="#24476b">Pred H</text><text x="314" y="64" text-anchor="middle" font-size="10" fill="#24476b">Pred A</text><text x="202" y="104" text-anchor="end" font-size="10" fill="#24476b">True H</text><text x="202" y="174" text-anchor="end" font-size="10" fill="#24476b">True A</text><text x="475" y="50" text-anchor="middle" font-size="14" fill="#10263b">Moderate</text><rect x="400" y="70" width="68" height="68" fill="#dce8f5" stroke="#24476b" /><text x="434" y="108" text-anchor="middle" font-size="18" fill="#10263b">5</text><rect x="470" y="70" width="68" height="68" fill="#8fb6df" stroke="#24476b" /><text x="504" y="108" text-anchor="middle" font-size="18" fill="#10263b">1</text><rect x="400" y="140" width="68" height="68" fill="#8fb6df" stroke="#24476b" /><text x="434" y="178" text-anchor="middle" font-size="18" fill="#10263b">2</text><rect x="470" y="140" width="68" height="68" fill="#4c84c3" stroke="#24476b" /><text x="504" y="178" text-anchor="middle" font-size="18" fill="#10263b">4</text><text x="434" y="64" text-anchor="middle" font-size="10" fill="#24476b">Pred H</text><text x="504" y="64" text-anchor="middle" font-size="10" fill="#24476b">Pred A</text><text x="392" y="104" text-anchor="end" font-size="10" fill="#24476b">True H</text><text x="392" y="174" text-anchor="end" font-size="10" fill="#24476b">True A</text><text x="665" y="50" text-anchor="middle" font-size="14" fill="#10263b">Heavy</text><rect x="590" y="70" width="68" height="68" fill="#dce8f5" stroke="#24476b" /><text x="624" y="108" text-anchor="middle" font-size="18" fill="#10263b">5</text><rect x="660" y="70" width="68" height="68" fill="#8fb6df" stroke="#24476b" /><text x="694" y="108" text-anchor="middle" font-size="18" fill="#10263b">1</text><rect x="590" y="140" width="68" height="68" fill="#8fb6df" stroke="#24476b" /><text x="624" y="178" text-anchor="middle" font-size="18" fill="#10263b">2</text><rect x="660" y="140" width="68" height="68" fill="#4c84c3" stroke="#24476b" /><text x="694" y="178" text-anchor="middle" font-size="18" fill="#10263b">4</text><text x="624" y="64" text-anchor="middle" font-size="10" fill="#24476b">Pred H</text><text x="694" y="64" text-anchor="middle" font-size="10" fill="#24476b">Pred A</text><text x="582" y="104" text-anchor="end" font-size="10" fill="#24476b">True H</text><text x="582" y="174" text-anchor="end" font-size="10" fill="#24476b">True A</text>
</svg>
