<svg xmlns="http://www.w3.org/2000/svg" width="560" height="310" viewBox="0 0 560 310">
<rect width="560" height="310" fill="#ffffff" />
<text x="280.0" y="28" text-anchor="middle" font-size="18" fill="#10263b">F1 Degradation Under Paraphrasing</text>
<line x1="70" y1="60" x2="70" y2="250" stroke="#24476b" />
<line x1="70" y1="250" x2="510" y2="250" stroke="#24476b" />
<text x="58" y="254" text-anchor="end" font-size="11" fill="#24476b">0.00</text>
<text x="58" y="203" text-anchor="end" font-size="11" fill="#24476b">0.10</text>
<text x="58" y="156" text-anchor="end" font-size="11" fill="#24476b">0.20</text>
<text x="58" y="109" text-anchor="end" font-size="11" fill="#24476b">0.30</text>
<text x="58" y="64" text-anchor="end" font-size="11" fill="#24476b">0.40</text>
<rect x="100.0" y="250.0" width="24" height="0.0" fill="#2a5c99" /><rect x="250.0" y="156.995" width="24" height="93.005" fill="#2a5c99" /><rect x="400.0" y="156.995" width="24" height="93.005" fill="#2a5c99" /><rect x="136.0" y="250.0" width="24" height="0.0" fill="#b56b1d" /><rect x="286.0" y="201.3125" width="24" height="48.68749999999999" fill="#b56b1d" /><rect x="436.0" y="250.0" width="24" height="0.0" fill="#b56b1d" />
<text x="112.0" y="242.0" text-anchor="middle" font-size="11" fill="#10263b">0.00</text><text x="262.0" y="148.995" text-anchor="middle" font-size="11" fill="#10263b">0.20</text><text x="412.0" y="148.995" text-anchor="middle" font-size="11" fill="#10263b">0.20</text><text x="148.0" y="242.0" text-anchor="middle" font-size="11" fill="#10263b">-0.09</text><text x="298.0" y="193.3125" text-anchor="middle" font-size="11" fill="#10263b">0.10</text><text x="448.0" y="242.0" text-anchor="middle" font-size="11" fill="#10263b">0.00</text>
<text x="130" y="272" text-anchor="middle" font-size="12" fill="#24476b">Light</text><text x="280" y="272" text-anchor="middle" font-size="12" fill="#24476b">Moderate</text><text x="430" y="272" text-anchor="middle" font-size="12" fill="#24476b">Heavy</text>
<rect x="350" y="42" width="14" height="14" fill="#2a5c99" />
<text x="370" y="54" font-size="12" fill="#24476b">TF-IDF + Logistic Regression</text>
<rect x="350" y="62" width="14" height="14" fill="#b56b1d" />
<text x="370" y="74" font-size="12" fill="#24476b">Embedding Averaging Neural Model</text>
</svg>
