<svg xmlns="http://www.w3.org/2000/svg" width="420" height="270" viewBox="0 0 420 270">
<rect width="420" height="270" fill="#ffffff" />
<text x="210" y="28" text-anchor="middle" font-size="18" fill="#10263b">Model Accuracy Across Paraphrase Levels</text>
<line x1="50" y1="50" x2="50" y2="210" stroke="#24476b" />
<line x1="50" y1="210" x2="370" y2="210" stroke="#24476b" />
<text x="38" y="214" text-anchor="end" font-size="11" fill="#24476b">0.0</text>
<text x="38" y="144" text-anchor="end" font-size="11" fill="#24476b">0.5</text>
<text x="38" y="74" text-anchor="end" font-size="11" fill="#24476b">1.0</text>
<polyline points="80,81.662 160,81.662 240,105.0 320,105.0" fill="none" stroke="#2a5c99" stroke-width="3" />
<polyline points="80,105.0 160,93.338 240,116.662 320,105.0" fill="none" stroke="#b56b1d" stroke-width="3" />
<circle cx="80" cy="81.662" r="4" fill="#2a5c99" /><circle cx="160" cy="81.662" r="4" fill="#2a5c99" /><circle cx="240" cy="105.0" r="4" fill="#2a5c99" /><circle cx="320" cy="105.0" r="4" fill="#2a5c99" />
<circle cx="80" cy="105.0" r="4" fill="#b56b1d" /><circle cx="160" cy="93.338" r="4" fill="#b56b1d" /><circle cx="240" cy="116.662" r="4" fill="#b56b1d" /><circle cx="320" cy="105.0" r="4" fill="#b56b1d" />
<text x="80" y="232" text-anchor="middle" font-size="12" fill="#24476b">Clean</text><text x="160" y="232" text-anchor="middle" font-size="12" fill="#24476b">Light</text><text x="240" y="232" text-anchor="middle" font-size="12" fill="#24476b">Moderate</text><text x="320" y="232" text-anchor="middle" font-size="12" fill="#24476b">Heavy</text>
<text x="80" y="73.662" text-anchor="middle" font-size="11" fill="#2a5c99">0.92</text><text x="160" y="73.662" text-anchor="middle" font-size="11" fill="#2a5c99">0.92</text><text x="240" y="97.0" text-anchor="middle" font-size="11" fill="#2a5c99">0.75</text><text x="320" y="97.0" text-anchor="middle" font-size="11" fill="#2a5c99">0.75</text><text x="80" y="97.0" text-anchor="middle" font-size="11" fill="#b56b1d">0.75</text><text x="160" y="85.338" text-anchor="middle" font-size="11" fill="#b56b1d">0.83</text><text x="240" y="108.662" text-anchor="middle" font-size="11" fill="#b56b1d">0.67</text><text x="320" y="97.0" text-anchor="middle" font-size="11" fill="#b56b1d">0.75</text>
<rect x="250" y="42" width="14" height="14" fill="#2a5c99" />
<text x="270" y="54" font-size="12" fill="#24476b">TF-IDF + Logistic Regression</text>
<rect x="250" y="62" width="14" height="14" fill="#b56b1d" />
<text x="270" y="74" font-size="12" fill="#24476b">Embedding Averaging Neural Model</text>
</svg>
